<svg width="25" height="24" viewBox="0 0 25 24" fill="none" xmlns="http://www.w3.org/2000/svg">
<path d="M10.05 15.15L18.525 6.675C18.725 6.475 18.9625 6.375 19.2375 6.375C19.5125 6.375 19.75 6.475 19.95 6.675C20.15 6.875 20.25 7.1125 20.25 7.3875C20.25 7.6625 20.15 7.9 19.95 8.1L10.75 17.3C10.55 17.5 10.3167 17.6 10.05 17.6C9.7833 17.6 9.55 17.5 9.35 17.3L5.05 13C4.85 12.8 4.7542 12.5625 4.7625 12.2875C4.7708 12.0125 4.875 11.775 5.075 11.575C5.275 11.375 5.5125 11.275 5.7875 11.275C6.0625 11.275 6.3 11.375 6.5 11.575L10.05 15.15Z" fill="white"/>
</svg>
