<svg width="25" height="24" viewBox="0 0 25 24" fill="none" xmlns="http://www.w3.org/2000/svg">
<path d="M12.5 13.4L7.6 18.3C7.4167 18.4834 7.1833 18.575 6.9 18.575C6.6167 18.575 6.3833 18.4834 6.2 18.3C6.0167 18.1167 5.925 17.8834 5.925 17.6C5.925 17.3167 6.0167 17.0834 6.2 16.9L11.1 12L6.2 7.1C6.0167 6.9167 5.925 6.6833 5.925 6.4C5.925 6.1167 6.0167 5.8833 6.2 5.7C6.3833 5.5167 6.6167 5.425 6.9 5.425C7.1833 5.425 7.4167 5.5167 7.6 5.7L12.5 10.6L17.4 5.7C17.5833 5.5167 17.8167 5.425 18.1 5.425C18.3833 5.425 18.6167 5.5167 18.8 5.7C18.9833 5.8833 19.075 6.1167 19.075 6.4C19.075 6.6833 18.9833 6.9167 18.8 7.1L13.9 12L18.8 16.9C18.9833 17.0834 19.075 17.3167 19.075 17.6C19.075 17.8834 18.9833 18.1167 18.8 18.3C18.6167 18.4834 18.3833 18.575 18.1 18.575C17.8167 18.575 17.5833 18.4834 17.4 18.3L12.5 13.4Z" fill="currentColor"/>
</svg>
